<!DOCTYPE svg PUBLIC "-//W3C//DTD SVG 1.1//EN" "http://www.w3.org/Graphics/SVG/1.1/DTD/svg11.dtd">
<!-- Uploaded to: SVG Repo, www.svgrepo.com, Transformed by: SVG Repo Mixer Tools -->
<svg fill="#eeeeee" height="800px" width="800px" version="1.1" id="Layer_1" xmlns="http://www.w3.org/2000/svg" xmlns:xlink="http://www.w3.org/1999/xlink" viewBox="-2.4 -2.4 28.80 28.80" xml:space="preserve" stroke="#eeeeee" stroke-width="0.00024000000000000003">
<g id="SVGRepo_bgCarrier" stroke-width="0"/>
<g id="SVGRepo_tracerCarrier" stroke-linecap="round" stroke-linejoin="round"/>
<g id="SVGRepo_iconCarrier"> <g> <polygon points="13,11 13,6 11,6 11,13 16,13 16,11 "/> <path d="M21,5V4h-1V3h-1V2H5v1H4v1H3v1H2v14h1v1h1v1h1v1h14v-1h1v-1h1v-1h1V5H21z M20,17h-1v1h-1v1h-1v1H7v-1H6v-1H5v-1H4V7h1V6h1 V5h1V4h10v1h1v1h1v1h1V17z"/> </g> </g>
</svg>